<svg xmlns="http://www.w3.org/2000/svg" xmlns:xlink="http://www.w3.org/1999/xlink" width="854" height="354" viewBox="0 0 854 354">
    <defs>
        <path id="a" d="M31.448.295a.592.592 0 0 1 .835.837l-9.012 9.032a.7.7 0 0 0 .989.99l5.451-5.461a.79.79 0 0 1 1.121 0c.31.308.31.812 0 1.122l-3.297 3.306a.7.7 0 0 0 .989.99l4.866-4.877a.97.97 0 0 1 1.374 0 .976.976 0 0 1 0 1.377L11.806 30.618c-2.474 2.483-6.502 2.775-9.131.461a6.596 6.596 0 0 1-.318-9.612l-.028-.027L22.45 1.275a.723.723 0 1 1 1.022 1.023l-4.289 4.297a.7.7 0 1 0 .99.991l5.77-5.783a.714.714 0 0 1 1.01 0 .72.72 0 0 1 0 1.014l-3.944 3.954a.702.702 0 0 0 0 .99.698.698 0 0 0 .989 0"/>
        <linearGradient id="b" x1="100%" x2="0%" y1="0%" y2="100%">
            <stop offset="0%" stop-color="#FAD961" stop-opacity="0"/>
            <stop offset="100%" stop-color="#F78D1C"/>
        </linearGradient>
        <path id="d" d="M31.428.848a.59.59 0 0 1 .836 0c.23.232.23.607 0 .839l-9.012 9.032a.702.702 0 0 0 0 .99.698.698 0 0 0 .989 0l5.452-5.463a.792.792 0 0 1 1.12 0c.31.311.31.814 0 1.123l-3.297 3.305a.704.704 0 0 0 0 .992.698.698 0 0 0 .989 0l4.865-4.878a.97.97 0 0 1 1.374 0 .976.976 0 0 1 0 1.377l-22.957 23.01c-2.474 2.479-6.502 2.773-9.131.459a6.596 6.596 0 0 1-.32-9.613l-.026-.026L22.43 1.829a.72.72 0 0 1 1.021 0 .725.725 0 0 1 0 1.023L19.164 7.15a.702.702 0 0 0 0 .991.696.696 0 0 0 .988 0l5.77-5.781a.713.713 0 0 1 1.012 0 .718.718 0 0 1 0 1.013l-3.946 3.953a.705.705 0 0 0 0 .991.697.697 0 0 0 .99 0"/>
        <linearGradient id="e" x1="100%" x2="0%" y1="-4.122%" y2="100%">
            <stop offset="0%" stop-color="#FAD961" stop-opacity="0"/>
            <stop offset="100%" stop-color="#F78D1C"/>
        </linearGradient>
        <path id="g" d="M31.202.534a.592.592 0 0 1 .836.837l-9.011 9.03a.704.704 0 0 0 0 .993.698.698 0 0 0 .988 0l5.45-5.463a.794.794 0 0 1 1.122 1.122l-3.296 3.306a.7.7 0 0 0 .988.99l4.866-4.876a.97.97 0 0 1 1.373 0 .976.976 0 0 1 0 1.376L11.561 30.86c-2.474 2.479-6.501 2.773-9.13.46a6.596 6.596 0 0 1-.32-9.614l-.026-.026 20.12-20.166a.72.72 0 0 1 1.02 0 .725.725 0 0 1 0 1.023l-4.287 4.297a.702.702 0 0 0 0 .991.698.698 0 0 0 .989 0l5.77-5.782a.713.713 0 0 1 1.012 0 .72.72 0 0 1 0 1.014L22.762 7.01a.704.704 0 0 0 0 .992.703.703 0 0 0 .99 0"/>
        <linearGradient id="h" x1="85.152%" x2="0%" y1="13.447%" y2="100%">
            <stop offset="0%" stop-color="#FAD961" stop-opacity="0"/>
            <stop offset="100%" stop-color="#F78D1C"/>
        </linearGradient>
        <path id="j" d="M.71.067v305.49H22.2V19.763h182.993v285.794h21.487V.067z"/>
        <linearGradient id="l" x1="2.104%" x2="89.373%" y1="50%" y2="50%">
            <stop offset="0%" stop-color="#D3D3D3" stop-opacity="0"/>
            <stop offset="100%" stop-color="#810D94"/>
        </linearGradient>
        <path id="m" d="M.226.08H202.34v2.308H.226z"/>
        <linearGradient id="n" x1="-5.114%" x2="89.175%" y1="50%" y2="50%">
            <stop offset="0%" stop-color="#D3D3D3" stop-opacity="0"/>
            <stop offset="100%" stop-color="#D3A6DA"/>
        </linearGradient>
        <linearGradient id="p" x1="100%" x2="2.928%" y1="50%" y2="50%">
            <stop offset="0%" stop-color="#D3D3D3" stop-opacity="0"/>
            <stop offset="100%" stop-color="#810D94"/>
        </linearGradient>
        <linearGradient id="q" x1="107.645%" x2="3.885%" y1="50%" y2="50%">
            <stop offset="0%" stop-color="#D3D3D3" stop-opacity="0"/>
            <stop offset="100%" stop-color="#D3A6DA"/>
        </linearGradient>
        <path id="r" d="M.38.248h41.426v328.204H.38z"/>
        <linearGradient id="t" x1="0%" y1="50%" y2="50%">
            <stop offset="0%" stop-opacity="0"/>
            <stop offset="100%"/>
        </linearGradient>
        <linearGradient id="u" x1="100%" x2="0%" y1="50%" y2="50%">
            <stop offset="0%" stop-color="#FAD961"/>
            <stop offset="100%" stop-color="#F76B1C" stop-opacity="0"/>
        </linearGradient>
        <path id="v" d="M.407.628h91.81v122.154H.406z"/>
        <linearGradient id="w" x1="0%" x2="176.462%" y1="49.581%" y2="49.581%">
            <stop offset="0%" stop-color="#3023AE" stop-opacity="0"/>
            <stop offset="49.691%" stop-color="#53A0FD" stop-opacity=".547"/>
            <stop offset="100%" stop-color="#B4EC51"/>
        </linearGradient>
        <path id="y" d="M.403.628v122.154h49.211c.068-2.772-.16-5.5.312-7.658.874-3.987 3.44-6.587 5.166-9.533 1.725-2.947-2.07-6.587-2.07-6.587s1.035-2.427 3.97-4.33c2.934-1.904 1.55-10.229 1.55-10.229s13.98-2.948 13.805-7.974c-.148-4.32-14.18-13.256-16.37-27.237 1.984-.713 5.111-2.545 5.498-7.083 0 0-2.088 2.75-5.785 3.487-.003-1.19.075-2.407.264-3.66C58.165 27.409 47.667 7.857 43.388.628H.403z"/>
        <linearGradient id="z" x1="0%" x2="239.963%" y1="50%" y2="50%">
            <stop offset="0%" stop-color="#D3D3D3" stop-opacity="0"/>
            <stop offset="19.689%" stop-color="#FFC78E" stop-opacity=".324"/>
            <stop offset="100%" stop-color="#B4EC51"/>
        </linearGradient>
        <path id="B" d="M38.296.732c-13.25 1.73-.902 20.764-5.734 24.917-2.315 1.989-4.788-.547-7.42-3.082-2.863-2.76-5.912-5.52-9.149-2.455-6.212 5.883 11.045 24.225 7.248 26.648-1.543.985-3.027-.257-4.641-1.501-2.359-1.816-4.992-3.635-8.475 1.501-5.868 8.653 12.427 30.108 10.701 37.723-.878 3.87-4.91 1.308-9.194-1.253-4.143-2.478-8.524-4.957-10.524-1.62-4.327 7.218 7.053 19.788 14.194 29.175 10.356 13.613 10.701 24.522 13.463 33.917l19.33-2.62c1.956-27.374 33.253-43.294 28.42-54.83-1.25-2.985-6.661-1.968-11.79-.953-5.462 1.082-10.606 2.164-10.071-1.585 1.036-7.269 26.233-26.187 24.162-34.147-1.087-4.175-6.638-2.255-11.919-.336-4.788 1.74-9.352 3.48-10.174.682C55 45.03 76.4 34.301 72.603 23.92c-2.298-6.28-5.607-3.44-10.23-.601-3.021 1.855-6.602 3.707-10.827 3.023C41.195 24.668 50.873.646 39.52.648c-.382 0-.79.027-1.223.084"/>
        <linearGradient id="C" x1="50%" x2="50%" y1=".7%" y2="96.574%">
            <stop offset="0%" stop-color="#9FDC33"/>
            <stop offset="100%" stop-color="#386327"/>
        </linearGradient>
        <path id="E" d="M4.663.703C1.979 26.09-5.277 107.075 6.982 142.837l7.083-.96c1.952-27.335 33.185-43.231 28.362-54.751-1.247-2.98-6.647-1.965-11.766-.952-5.45 1.081-10.584 2.16-10.05-1.582 1.033-7.258 26.18-26.15 24.113-34.098-1.085-4.169-6.624-2.252-11.895-.336-4.777 1.738-9.334 3.475-10.153.682-1.721-5.876 19.636-16.588 15.847-26.956-2.293-6.271-5.595-3.435-10.21-.6-3.014 1.853-6.588 3.702-10.804 3.02C7.18 24.631 16.822.663 5.493.662c-.266 0-.542.013-.83.04"/>
        <linearGradient id="F" x1="100%" x2="-66.05%" y1="61.092%" y2="61.092%">
            <stop offset="0%" stop-color="#426407" stop-opacity="0"/>
            <stop offset="100%" stop-color="#296C0E"/>
        </linearGradient>
        <path id="H" d="M.128.356l3.64 57.643h44.731L52.14.356z"/>
        <linearGradient id="I" x1="97.801%" x2="0%" y1="50%" y2="50%">
            <stop offset="0%" stop-color="#6A4431"/>
            <stop offset="100%" stop-color="#A35718"/>
        </linearGradient>
        <linearGradient id="J" x1="97.801%" x2="0%" y1="50%" y2="50%">
            <stop offset="0%" stop-color="#915C43"/>
            <stop offset="100%" stop-color="#C77027"/>
        </linearGradient>
    </defs>
    <g fill="none" fill-rule="evenodd">
        <path fill="#100B41" d="M324.365 327.391h198.734V37.19H324.365z"/>
        <g transform="translate(359.474 240.913)">
            <mask id="c" fill="#fff">
                <use xlink:href="#a"/>
            </mask>
            <path fill="url(#b)" d="M31.448.295l-7.451 7.467a.698.698 0 0 1-.989 0 .702.702 0 0 1 0-.991l3.945-3.954a.72.72 0 0 0 0-1.014.714.714 0 0 0-1.01 0l-5.77 5.783a.7.7 0 1 1-.99-.991l4.288-4.297a.723.723 0 1 0-1.022-1.023L2.33 21.44l.028.027a6.596 6.596 0 0 0 .318 9.612c2.63 2.314 6.657 2.022 9.13-.46L34.765 7.61a.976.976 0 0 0 0-1.377.97.97 0 0 0-1.374 0l-4.866 4.876a.7.7 0 0 1-.989-.99l3.297-3.305a.794.794 0 0 0 0-1.122.79.79 0 0 0-1.12 0l-5.452 5.46a.7.7 0 0 1-.989-.99l9.012-9.03a.592.592 0 0 0-.835-.838" mask="url(#c)"/>
        </g>
        <path fill="#F8C326" d="M369.962 263.541a4.95 4.95 0 0 1 0 6.99 4.924 4.924 0 0 1-6.974 0 4.95 4.95 0 0 1 0-6.99 4.924 4.924 0 0 1 6.974 0"/>
        <g transform="translate(349.31 120.134)">
            <mask id="f" fill="#fff">
                <use xlink:href="#d"/>
            </mask>
            <path fill="url(#e)" d="M31.428.848l-7.45 7.468a.697.697 0 0 1-.99 0 .705.705 0 0 1 0-.99l3.946-3.954a.718.718 0 0 0 0-1.013.713.713 0 0 0-1.012 0l-5.77 5.781a.696.696 0 0 1-.988 0 .702.702 0 0 1 0-.99l4.287-4.298a.725.725 0 0 0 0-1.023.72.72 0 0 0-1.02 0L2.31 21.995l.025.026a6.596 6.596 0 0 0 .32 9.613c2.63 2.314 6.657 2.02 9.13-.46l22.958-23.01a.976.976 0 0 0 0-1.376.97.97 0 0 0-1.374 0l-4.865 4.878a.698.698 0 0 1-.989 0 .704.704 0 0 1 0-.992l3.297-3.305a.796.796 0 0 0 0-1.123.792.792 0 0 0-1.12 0L24.24 11.71a.698.698 0 0 1-.989 0 .702.702 0 0 1 0-.991l9.012-9.032a.594.594 0 0 0 0-.839.59.59 0 0 0-.836 0" mask="url(#f)"/>
        </g>
        <path fill="#F8C326" d="M359.779 143.317a4.95 4.95 0 0 1 0 6.99 4.922 4.922 0 0 1-6.972 0 4.95 4.95 0 0 1 0-6.99 4.922 4.922 0 0 1 6.972 0"/>
        <path fill="#5C2EAB" d="M530.01 33.848h-78.876a56.382 56.382 0 0 0-10.555 32.918c0 31.24 25.268 56.566 56.437 56.566 12.323 0 23.713-3.97 32.994-10.686V33.848z"/>
        <path fill="#6733BF" d="M528.86 110.888a56.005 56.005 0 0 1-28.62 7.83c-31.171 0-56.438-25.326-56.438-56.567a56.378 56.378 0 0 1 8.621-30.034 56.376 56.376 0 0 0-11.844 34.649c0 31.24 25.268 56.566 56.437 56.566 11.824 0 22.778-3.667 31.844-9.898v-2.546z"/>
        <path fill="#572BA1" d="M474.676 92.105c2.05 2.639 2.026 6.096-.056 7.72-2.082 1.624-5.431.802-7.481-1.836-2.052-2.64-2.025-6.096.057-7.72 2.079-1.624 5.43-.802 7.48 1.836"/>
        <path fill="#4F2791" d="M468.232 97.135c-1.866-2.4-1.994-5.464-.438-7.223-.204.106-.412.21-.6.356-2.08 1.624-2.106 5.082-.056 7.72 2.05 2.64 5.401 3.462 7.482 1.838.187-.147.34-.323.492-.498-2.082 1.083-5.015.208-6.88-2.193"/>
        <path fill="#572BA1" d="M490.65 102.013c1.862 1.217 2.593 3.398 1.635 4.873-.96 1.474-3.246 1.685-5.109.469-1.861-1.217-2.593-3.398-1.635-4.872.961-1.475 3.247-1.685 5.11-.47"/>
        <path fill="#4F2791" d="M487.681 106.58c-1.694-1.106-2.439-3.006-1.838-4.452-.107.112-.214.222-.302.355-.958 1.475-.226 3.656 1.635 4.873 1.863 1.215 4.15 1.006 5.11-.47.085-.132.143-.277.203-.42-1.08 1.134-3.113 1.22-4.808.114"/>
        <path fill="#572BA1" d="M486.25 88.32c.991 1.277.975 2.95-.033 3.735-1.009.785-2.629.386-3.62-.893-.99-1.28-.976-2.951.033-3.736 1.009-.785 2.628-.385 3.62.894"/>
        <path fill="#4F2791" d="M483.127 90.749c-.901-1.163-.96-2.645-.206-3.495-.1.05-.2.1-.292.171-1.007.785-1.022 2.458-.03 3.736.989 1.279 2.61 1.68 3.618.893.09-.07.164-.154.238-.238-1.008.522-2.426.097-3.328-1.067"/>
        <path fill="#572BA1" d="M460.42 72.486c1.79 2.535 1.618 5.74-.381 7.155-2 1.418-5.07.513-6.857-2.024-1.79-2.535-1.62-5.738.38-7.155 2-1.417 5.071-.51 6.859 2.024"/>
        <path fill="#4F2791" d="M454.232 76.873c-1.628-2.306-1.616-5.153-.096-6.715-.196.09-.394.177-.574.304-1.999 1.417-2.17 4.621-.381 7.156 1.788 2.535 4.859 3.44 6.858 2.024.18-.128.328-.285.478-.44-1.978.915-4.66-.022-6.285-2.329"/>
        <path fill="#572BA1" d="M463.395 98.885c2.156 2.161 2.77 5.05 1.37 6.453-1.399 1.4-4.28.787-6.435-1.374-2.158-2.163-2.77-5.05-1.372-6.452 1.4-1.403 4.283-.788 6.437 1.373M458.563 89.054c.533.831.487 1.812-.101 2.19-.59.38-1.499.014-2.032-.817-.531-.831-.486-1.812.105-2.19.588-.38 1.497-.013 2.028.817"/>
        <path fill="#6733BF" d="M480.165 106.148c.84.547 1.213 1.463.835 2.043-.377.581-1.362.607-2.2.06-.84-.549-1.213-1.464-.837-2.043.377-.58 1.363-.607 2.202-.06"/>
        <path fill="#395F88" d="M473.21 327.779c-3.787-10.702-10.795-20.371-20.781-27.38-25.53-17.924-60.723-11.71-78.604 13.879a56.53 56.53 0 0 0-6.952 13.5H473.21z"/>
        <path fill="#3E6C9D" d="M371.012 327.779a56.634 56.634 0 0 1 4.734-8.209c17.883-25.59 53.075-31.803 78.606-13.88 8.306 5.832 14.527 13.513 18.575 22.089h.289c-3.785-10.702-10.8-20.371-20.786-27.38-25.532-17.924-60.723-11.71-78.606 13.879a56.365 56.365 0 0 0-6.95 13.5h4.138z"/>
        <path fill="#22596F" d="M412.16 313.852c-3.333.169-6.142-1.835-6.276-4.474-.135-2.642 2.46-4.919 5.793-5.09 3.332-.168 6.143 1.834 6.277 4.476.133 2.64-2.461 4.918-5.793 5.088"/>
        <path fill="#154B61" d="M411.747 305.675c3.033-.152 5.61 1.5 6.153 3.787.032-.232.065-.462.054-.699-.134-2.64-2.943-4.643-6.277-4.474-3.333.17-5.926 2.447-5.793 5.088.012.238.068.463.122.69.31-2.331 2.708-4.237 5.74-4.392"/>
        <path fill="#22596F" d="M394.9 321.281c-2.062.831-4.265.18-4.921-1.453-.655-1.633.485-3.63 2.548-4.462 2.062-.832 4.264-.18 4.919 1.454.656 1.633-.485 3.63-2.547 4.461"/>
        <path fill="#154B61" d="M392.87 316.224c1.876-.757 3.857-.275 4.693 1.046-.03-.153-.058-.304-.116-.45-.657-1.635-2.859-2.285-4.92-1.455-2.062.831-3.202 2.83-2.547 4.463.058.147.143.277.226.408-.309-1.537.789-3.255 2.664-4.012"/>
        <path fill="#22596F" d="M408.615 325.525c-1.613.08-2.972-.892-3.034-2.17-.063-1.277 1.193-2.379 2.806-2.459 1.613-.079 2.972.893 3.034 2.171.064 1.276-1.193 2.378-2.806 2.458"/>
        <path fill="#154B61" d="M408.42 321.569c1.468-.073 2.714.729 2.976 1.836.014-.112.031-.224.026-.34-.063-1.277-1.422-2.249-3.035-2.169-1.613.08-2.87 1.182-2.806 2.46.006.114.033.224.058.333.152-1.128 1.314-2.048 2.782-2.12"/>
        <path fill="#22596F" d="M436.371 313.405c-3.098.014-5.617-1.965-5.629-4.418-.011-2.455 2.492-4.456 5.59-4.47 3.097-.014 5.617 1.964 5.629 4.419.01 2.453-2.492 4.454-5.59 4.469"/>
        <path fill="#154B61" d="M436.337 305.806c2.818-.013 5.138 1.63 5.543 3.775.04-.213.082-.424.08-.646-.011-2.454-2.53-4.433-5.629-4.418-3.098.014-5.6 2.015-5.59 4.47.002.22.047.43.086.643.388-2.147 2.692-3.81 5.51-3.824"/>
        <path fill="#2C6C85" d="M423.897 302.374c-.984-.039-1.76-.639-1.73-1.34.027-.7.849-1.237 1.832-1.196.985.04 1.76.639 1.732 1.34-.03.702-.85 1.236-1.834 1.196M397.535 310.302c-.93.374-1.892.156-2.149-.486-.258-.643.286-1.468 1.214-1.842.93-.374 1.892-.157 2.15.486.257.643-.286 1.467-1.215 1.842"/>
        <path fill="#22596F" d="M413.091 300.702c-3.002.53-5.716-.623-6.059-2.577-.344-1.952 1.814-3.964 4.816-4.495 3.003-.532 5.716.622 6.059 2.575.343 1.953-1.814 3.967-4.816 4.497"/>
        <path fill="#9079B8" d="M383.433 106.612a3.89 3.89 0 0 1-3.886 3.894 3.89 3.89 0 0 1-3.883-3.894c0-2.151 1.739-3.893 3.883-3.893a3.888 3.888 0 0 1 3.886 3.893M409.4 130.37a3.32 3.32 0 0 1-3.316 3.324 3.32 3.32 0 0 1-3.314-3.324 3.32 3.32 0 0 1 3.314-3.323 3.32 3.32 0 0 1 3.316 3.323M468.049 241.034c0 3.741-3.028 6.774-6.76 6.774-3.735 0-6.762-3.033-6.762-6.774 0-3.742 3.027-6.775 6.762-6.775 3.732 0 6.76 3.033 6.76 6.775"/>
        <path fill="#F4EDFF" d="M390.192 281.864a3.383 3.383 0 0 1-3.38 3.388 3.383 3.383 0 0 1-3.38-3.388 3.384 3.384 0 0 1 3.38-3.387 3.384 3.384 0 0 1 3.38 3.387M417.444 80.915c0 .936-.757 1.694-1.69 1.694-.934 0-1.69-.758-1.69-1.694 0-.935.756-1.694 1.69-1.694.933 0 1.69.759 1.69 1.694"/>
        <path fill="#FFD65C" d="M457.168 125.55a.851.851 0 0 1 .809-.811 17.544 17.544 0 0 0 2.506-.304 17.548 17.548 0 0 0-2.506-.303.851.851 0 0 1-.809-.81 17.609 17.609 0 0 0-.303-2.512c-.156.784-.256 1.63-.302 2.511a.851.851 0 0 1-.809.811c-.878.047-1.722.146-2.506.303.784.157 1.628.257 2.506.304.44.023.785.37.809.81.046.88.146 1.728.302 2.512.156-.784.257-1.631.303-2.512M420.86 236.848a.741.741 0 0 1 .704-.706c.767-.04 1.503-.128 2.184-.265a15.486 15.486 0 0 0-2.184-.265.741.741 0 0 1-.704-.706 15.427 15.427 0 0 0-.264-2.188 15.432 15.432 0 0 0-.263 2.188.741.741 0 0 1-.706.706c-.765.042-1.5.128-2.183.265.684.137 1.418.224 2.183.265a.741.741 0 0 1 .706.706c.04.767.128 1.504.263 2.188.136-.684.223-1.421.264-2.188M486.82 276.127a.742.742 0 0 1 .403-.914c.7-.315 1.355-.662 1.941-1.037-.685.12-1.404.304-2.131.544a.741.741 0 0 1-.912-.403 15.201 15.201 0 0 0-1.034-1.945c.12.688.304 1.405.543 2.136a.745.745 0 0 1-.405.914c-.698.314-1.352.662-1.941 1.037a15.57 15.57 0 0 0 2.133-.544.74.74 0 0 1 .912.403c.313.701.66 1.356 1.033 1.946a15.476 15.476 0 0 0-.541-2.137"/>
        <g transform="translate(490.762 217.63)">
            <mask id="i" fill="#fff">
                <use xlink:href="#g"/>
            </mask>
            <path fill="url(#h)" d="M31.202.534l-7.45 7.468a.703.703 0 0 1-.99 0 .704.704 0 0 1 0-.992l3.947-3.954a.72.72 0 0 0 0-1.014.713.713 0 0 0-1.012 0l-5.77 5.782a.698.698 0 0 1-.989 0 .702.702 0 0 1 0-.99l4.288-4.298a.725.725 0 0 0 0-1.023.72.72 0 0 0-1.021 0L2.085 21.68l.026.026a6.596 6.596 0 0 0 .32 9.613c2.629 2.314 6.656 2.02 9.13-.46L34.518 7.85a.976.976 0 0 0 0-1.376.97.97 0 0 0-1.373 0l-4.866 4.876a.7.7 0 0 1-.989-.99l3.298-3.306a.794.794 0 0 0-1.122-1.122l-5.45 5.463a.698.698 0 0 1-.99 0 .704.704 0 0 1 0-.992l9.012-9.031a.592.592 0 0 0-.836-.837" mask="url(#i)"/>
        </g>
        <path fill="#F8C326" d="M501.005 240.497a4.95 4.95 0 0 1 0 6.99 4.924 4.924 0 0 1-6.974 0 4.95 4.95 0 0 1 0-6.99 4.924 4.924 0 0 1 6.974 0"/>
        <path fill="#FFD65C" d="M363.724 67.314a.781.781 0 0 1 .743-.743 16.195 16.195 0 0 0 2.306-.278 16.195 16.195 0 0 0-2.306-.28.781.781 0 0 1-.743-.742 15.966 15.966 0 0 0-.278-2.304c-.143.72-.235 1.495-.278 2.304a.78.78 0 0 1-.744.743c-.807.043-1.582.135-2.304.279.722.144 1.497.236 2.304.278a.78.78 0 0 1 .744.743c.043.808.135 1.585.278 2.305.145-.72.236-1.497.278-2.305"/>
        <g transform="translate(310.229 22.222)">
            <mask id="k" fill="#fff">
                <use xlink:href="#j"/>
            </mask>
            <path d="M.71.067v305.49H22.2V19.763h182.993v285.794h21.487V.067z" mask="url(#k)"/>
        </g>
        <path fill="url(#l)" d="M.464 335.886h330.07v-20.788H.463z" transform="translate(-7 -6)"/>
        <g transform="translate(109 308.266)">
            <mask id="o" fill="#fff">
                <use xlink:href="#m"/>
            </mask>
            <path fill="url(#n)" d="M.226 2.388H202.34V.08H.226z" mask="url(#o)"/>
        </g>
        <path fill="url(#p)" d="M530.93 335.886H861v-20.788H530.93z" transform="translate(-7 -6)"/>
        <path fill="url(#q)" d="M531.762 315.098h202.06v-2.495h-202.06z" transform="translate(-7 -6)"/>
        <g>
            <path fill="#D49338" d="M314.844 25.667v307.725h20.717V46.406h176.417v286.986h20.716V25.667z"/>
            <path fill="#B06506" d="M327.375 333.392h8.186V46.406H511.98v286.986h8.186V39.209h-192.79z"/>
            <path fill="#EFC44D" d="M278.074 202.896c-1.838 0-3.326-.95-3.326-2.12v-20.704c0-1.171 1.488-2.121 3.326-2.121 1.836 0 3.326.95 3.326 2.12v20.705c0 1.17-1.49 2.12-3.326 2.12"/>
            <path fill="#4C4E53" d="M288.264 193.352h-13.637a2.937 2.937 0 0 1 0-5.876h13.637v5.876z"/>
            <g transform="translate(293.755 25.548)">
                <mask id="s" fill="#fff">
                    <use xlink:href="#r"/>
                </mask>
                <path fill="#B06506" d="M.38 328.453l41.426-20.61V20.857L.38.247z" mask="url(#s)"/>
            </g>
            <path fill="#D49338" d="M331.297 185.199l-31.758-.51V40.103l31.758 14.661zM331.297 325.032l-31.758 14.663V195.107l31.758-.51zM286.747 350.966l7.365 2.618V26.213l-7.365 2.617z"/>
        </g>
        <path fill="url(#t)" d="M88.386 222.798h98.951V87.26H88.386z" opacity=".127" transform="translate(-7 -6)"/>
        <path fill="url(#u)" d="M85.891 220.304h98.952V84.765H85.89z" transform="translate(-7 -6)"/>
        <g transform="translate(78.891 85.418)">
            <mask id="x" fill="#fff">
                <use xlink:href="#v"/>
            </mask>
            <path fill="url(#w)" d="M.407 122.782h91.81V.628H.406z" mask="url(#x)"/>
        </g>
        <g transform="translate(78.891 85.418)">
            <mask id="A" fill="#fff">
                <use xlink:href="#y"/>
            </mask>
            <path fill="url(#z)" d="M.403.628v122.154h49.211c.068-2.772-.16-5.5.312-7.658.874-3.987 3.44-6.587 5.166-9.533 1.725-2.947-2.07-6.587-2.07-6.587s1.035-2.427 3.97-4.33c2.934-1.904 1.55-10.229 1.55-10.229s13.98-2.948 13.805-7.974c-.148-4.32-14.18-13.256-16.37-27.237 1.984-.713 5.111-2.545 5.498-7.083 0 0-2.088 2.75-5.785 3.487-.003-1.19.075-2.407.264-3.66C58.165 27.409 47.667 7.857 43.388.628H.403z" mask="url(#A)"/>
        </g>
        <g transform="translate(636.99 148.614)">
            <mask id="D" fill="#fff">
                <use xlink:href="#B"/>
            </mask>
            <path fill="url(#C)" d="M38.296.732c-13.25 1.73-.902 20.764-5.734 24.917-2.315 1.989-4.788-.547-7.42-3.082-2.863-2.76-5.912-5.52-9.149-2.455-6.212 5.883 11.045 24.225 7.248 26.648-1.543.985-3.027-.257-4.641-1.501-2.359-1.816-4.992-3.635-8.475 1.501-5.868 8.653 12.427 30.108 10.701 37.723-.878 3.87-4.91 1.308-9.194-1.253-4.143-2.478-8.524-4.957-10.524-1.62-4.327 7.218 7.053 19.788 14.194 29.175 10.356 13.613 10.701 24.522 13.463 33.917l19.33-2.62c1.956-27.374 33.253-43.294 28.42-54.83-1.25-2.985-6.661-1.968-11.79-.953-5.462 1.082-10.606 2.164-10.071-1.585 1.036-7.269 26.233-26.187 24.162-34.147-1.087-4.175-6.638-2.255-11.919-.336-4.788 1.74-9.352 3.48-10.174.682C55 45.03 76.4 34.301 72.603 23.92c-2.298-6.28-5.607-3.44-10.23-.601-3.021 1.855-6.602 3.707-10.827 3.023C41.195 24.668 50.873.646 39.52.648c-.382 0-.79.027-1.223.084" mask="url(#D)"/>
        </g>
        <g transform="translate(671.083 148.614)">
            <mask id="G" fill="#fff">
                <use xlink:href="#E"/>
            </mask>
            <path fill="url(#F)" d="M4.663.703C1.979 26.09-5.277 107.075 6.982 142.837l7.083-.96c1.952-27.335 33.185-43.231 28.362-54.751-1.247-2.98-6.647-1.965-11.766-.952-5.45 1.081-10.584 2.16-10.05-1.582 1.033-7.258 26.18-26.15 24.113-34.098-1.085-4.169-6.624-2.252-11.895-.336-4.777 1.738-9.334 3.475-10.153.682-1.721-5.876 19.636-16.588 15.847-26.956-2.293-6.271-5.595-3.435-10.21-.6-3.014 1.853-6.588 3.702-10.804 3.02C7.18 24.631 16.822.663 5.493.662c-.266 0-.542.013-.83.04" mask="url(#G)"/>
        </g>
        <g>
            <path fill="url(#I)" d="M.128.356l3.64 57.643h44.731L52.14.356z" transform="translate(649.463 277.5)"/>
        </g>
        <path fill="url(#J)" d="M653.969 293.478h56.543v-10.81H653.97z" transform="translate(-7 -6)"/>
        <path fill="#6B7D85" d="M412.706 13.441v3.036h-3.454v-3.036h-7.326V10.34l6.336-9.438h4.422v9.548h2.156v2.992h-2.134zm-3.432-8.756h-.066l-3.696 5.764h3.762V4.685zm19.514 3.96c0 1.1-.11 2.149-.33 3.146-.22.997-.572 1.874-1.056 2.63a5.466 5.466 0 0 1-1.881 1.803c-.77.447-1.705.671-2.805.671s-2.04-.224-2.816-.67a5.532 5.532 0 0 1-1.903-1.805c-.492-.755-.847-1.632-1.067-2.629a14.57 14.57 0 0 1-.33-3.146c0-1.1.11-2.145.33-3.135.22-.99.575-1.855 1.067-2.596a5.507 5.507 0 0 1 1.903-1.77c.777-.44 1.716-.66 2.816-.66 1.1 0 2.035.22 2.805.66a5.44 5.44 0 0 1 1.88 1.77c.485.74.837 1.606 1.057 2.596.22.99.33 2.035.33 3.135zm-3.784 0c0-.484-.03-1.02-.088-1.606a8.01 8.01 0 0 0-.33-1.639 3.556 3.556 0 0 0-.693-1.276c-.301-.345-.693-.517-1.177-.517-.484 0-.88.172-1.188.517-.308.345-.547.77-.715 1.276a7.545 7.545 0 0 0-.341 1.64 16.253 16.253 0 0 0-.088 1.605c0 .499.029 1.045.088 1.64.058.593.172 1.143.34 1.65.17.505.408.93.716 1.275.308.345.704.517 1.188.517s.876-.172 1.177-.517c.3-.345.531-.77.693-1.276a8.018 8.018 0 0 0 .33-1.65c.058-.594.088-1.14.088-1.639zm16.126 4.796v3.036h-3.454v-3.036h-7.326V10.34l6.336-9.438h4.422v9.548h2.156v2.992h-2.134zm-3.432-8.756h-.066l-3.696 5.764h3.762V4.685z"/>
    </g>
</svg>
